{
  "accessors": [
    {
      "bufferView": 2,
      "componentType": 5126,
      "count": 282,
      "max": [
        0.3494987189769745,
        0.37910500168800354,
        1.0926153659820557
      ],
      "min": [
        -0.3315924108028412,
        -0.577586829662323,
        0.10591687262058258
      ],
      "type": "VEC3"
    },
    {
      "bufferView": 2,
      "byteOffset": 3384,
      "componentType": 5126,
      "count": 282,
      "max": [
        0.990586519241333,
        0.9869507551193237,
        0.9999127388000488
      ],
      "min": [
        -0.9905866384506226,
        -0.9494910836219788,
        -0.9531009793281555
      ],
      "type": "VEC3"
    },
    {
      "bufferView": 1,
      "componentType": 5126,
      "count": 282,
      "max": [
        0.9126958250999451,
        0.9954158067703247
      ],
      "min": [
        0.0019440187606960535,
        0.0019920493941754103
      ],
      "type": "VEC2"
    },
    {
      "bufferView": 0,
      "componentType": 5125,
      "count": 696,
      "type": "SCALAR"
    },
    {
      "bufferView": 2,
      "byteOffset": 6768,
      "componentType": 5126,
      "count": 151,
      "max": [
        0.6606743931770325,
        -0.382071316242218,
        0.991762638092041
      ],
      "min": [
        -0.649076521396637,
        -0.9683731198310852,
        -0.4075109362602234
      ],
      "type": "VEC3"
    },
    {
      "bufferView": 2,
      "byteOffset": 8580,
      "componentType": 5126,
      "count": 151,
      "max": [
        0.9630046486854553,
        0.9999014139175415,
        0.8023079633712769
      ],
      "min": [
        -0.9630047082901001,
        -0.9987246990203857,
        -0.5374055504798889
      ],
      "type": "VEC3"
    },
    {
      "bufferView": 1,
      "byteOffset": 2256,
      "componentType": 5126,
      "count": 151,
      "max": [
        0.6959240436553955,
        0.9616684317588806
      ],
      "min": [
        0.14668449759483337,
        0.0019920493941754103
      ],
      "type": "VEC2"
    },
    {
      "bufferView": 0,
      "byteOffset": 2784,
      "componentType": 5125,
      "count": 540,
      "type": "SCALAR"
    },
    {
      "bufferView": 2,
      "byteOffset": 10392,
      "componentType": 5126,
      "count": 595,
      "max": [
        1.1509137153625488,
        1.2724266052246094,
        0.3029482364654541
      ],
      "min": [
        -1.1509137153625488,
        -0.816780149936676,
        -1.3519140481948853
      ],
      "type": "VEC3"
    },
    {
      "bufferView": 2,
      "byteOffset": 17532,
      "componentType": 5126,
      "count": 595,
      "max": [
        0.9868150353431702,
        0.9798105359077454,
        0.9997063279151917
      ],
      "min": [
        -0.9868150353431702,
        -0.9980326294898987,
        -0.9989506006240845
      ],
      "type": "VEC3"
    },
    {
      "bufferView": 1,
      "byteOffset": 3464,
      "componentType": 5126,
      "count": 595,
      "max": [
        0.9739534258842468,
        0.9681230783462524
      ],
      "min": [
        0.001944032614119351,
        0.00199203216470778
      ],
      "type": "VEC2"
    },
    {
      "bufferView": 0,
      "byteOffset": 4944,
      "componentType": 5125,
      "count": 2196,
      "type": "SCALAR"
    },
    {
      "bufferView": 2,
      "byteOffset": 24672,
      "componentType": 5126,
      "count": 20,
      "max": [
        0.4142325520515442,
        0.09547659009695053,
        0.23782984912395477
      ],
      "min": [
        -0.3980642855167389,
        -0.39706993103027344,
        0.10158386081457138
      ],
      "type": "VEC3"
    },
    {
      "bufferView": 2,
      "byteOffset": 24912,
      "componentType": 5126,
      "count": 20,
      "max": [
        0.5172222256660461,
        0.2145705223083496,
        0.961612343788147
      ],
      "min": [
        -0.5172222852706909,
        -0.09646065533161163,
        0.855614960193634
      ],
      "type": "VEC3"
    },
    {
      "bufferView": 1,
      "byteOffset": 8224,
      "componentType": 5126,
      "count": 20,
      "max": [
        0.4904787540435791,
        0.7413907051086426
      ],
      "min": [
        0.39697548747062683,
        0.5871871113777161
      ],
      "type": "VEC2"
    },
    {
      "bufferView": 0,
      "byteOffset": 13728,
      "componentType": 5125,
      "count": 54,
      "type": "SCALAR"
    },
    {
      "bufferView": 2,
      "byteOffset": 25152,
      "componentType": 5126,
      "count": 84,
      "max": [
        1.133589506149292,
        1.2136660814285278,
        -0.4478726089000702
      ],
      "min": [
        -1.133589506149292,
        0.15762299299240112,
        -0.8366779088973999
      ],
      "type": "VEC3"
    },
    {
      "bufferView": 2,
      "byteOffset": 26160,
      "componentType": 5126,
      "count": 84,
      "max": [
        0.9844837188720703,
        0.19623613357543945,
        0.9988903403282166
      ],
      "min": [
        -0.9844838380813599,
        -0.6132017374038696,
        -0.5878146290779114
      ],
      "type": "VEC3"
    },
    {
      "bufferView": 1,
      "byteOffset": 8384,
      "componentType": 5126,
      "count": 84,
      "max": [
        0.8825696706771851,
        0.9471863508224487
      ],
      "min": [
        0.5478121042251587,
        0.567497968673706
      ],
      "type": "VEC2"
    },
    {
      "bufferView": 0,
      "byteOffset": 13944,
      "componentType": 5125,
      "count": 288,
      "type": "SCALAR"
    },
    {
      "bufferView": 2,
      "byteOffset": 27168,
      "componentType": 5126,
      "count": 86,
      "max": [
        0.5356157422065735,
        0.8393295407295227,
        -0.12297993153333664
      ],
      "min": [
        -0.4897603988647461,
        0.4077025353908539,
        -0.4016551971435547
      ],
      "type": "VEC3"
    },
    {
      "bufferView": 2,
      "byteOffset": 28200,
      "componentType": 5126,
      "count": 86,
      "max": [
        0.9847843050956726,
        0.9370989203453064,
        0.995599627494812
      ],
      "min": [
        -0.995259165763855,
        -0.23972192406654358,
        -0.914671003818512
      ],
      "type": "VEC3"
    },
    {
      "bufferView": 1,
      "byteOffset": 9056,
      "componentType": 5126,
      "count": 86,
      "max": [
        0.7774477601051331,
        0.9980080127716064
      ],
      "min": [
        0.04017378017306328,
        0.7765595316886902
      ],
      "type": "VEC2"
    },
    {
      "bufferView": 0,
      "byteOffset": 15096,
      "componentType": 5125,
      "count": 240,
      "type": "SCALAR"
    }
  ],
  "asset": {
    "extras": {
      "author": "LoneDeveloper (https://sketchfab.com/LoneDeveloper)",
      "license": "CC-BY-4.0 (http://creativecommons.org/licenses/by/4.0/)",
      "source": "https://sketchfab.com/3d-models/toontown-deer-cartoon-head-88360254d8944b2bab2dc55b8b399be8",
      "title": "Toontown - Deer Cartoon Head"
    },
    "generator": "Sketchfab-12.68.0",
    "version": "2.0"
  },
  "bufferViews": [
    {
      "buffer": 0,
      "byteLength": 16056,
      "name": "floatBufferViews",
      "target": 34963
    },
    {
      "buffer": 0,
      "byteLength": 9744,
      "byteOffset": 16056,
      "byteStride": 8,
      "name": "floatBufferViews",
      "target": 34962
    },
    {
      "buffer": 0,
      "byteLength": 29232,
      "byteOffset": 25800,
      "byteStride": 12,
      "name": "floatBufferViews",
      "target": 34962
    }
  ],
  "buffers": [
    {
      "byteLength": 55032,
      "uri": "scene.bin"
    }
  ],
  "images": [
    {
      "uri": "textures/Snout2_baseColor.png"
    }
  ],
  "materials": [
    {
      "doubleSided": true,
      "name": "blinn1",
      "pbrMetallicRoughness": {
        "baseColorFactor": [
          0.0,
          0.0,
          0.0,
          1.0
        ],
        "metallicFactor": 0.0,
        "roughnessFactor": 0.9207483815999999
      }
    },
    {
      "doubleSided": true,
      "name": "Snout2",
      "pbrMetallicRoughness": {
        "baseColorTexture": {
          "index": 0
        },
        "metallicFactor": 0.0,
        "roughnessFactor": 0.9207483815999999
      }
    },
    {
      "doubleSided": true,
      "name": "lambert1",
      "pbrMetallicRoughness": {
        "baseColorTexture": {
          "index": 0
        },
        "metallicFactor": 0.0,
        "roughnessFactor": 0.6
      }
    },
    {
      "doubleSided": true,
      "name": "eyecolor",
      "pbrMetallicRoughness": {
        "baseColorTexture": {
          "index": 0
        },
        "metallicFactor": 0.0,
        "roughnessFactor": 0.9207483815999999
      }
    },
    {
      "doubleSided": true,
      "name": "earInside",
      "pbrMetallicRoughness": {
        "baseColorTexture": {
          "index": 0
        },
        "metallicFactor": 0.0,
        "roughnessFactor": 0.9207483815999999
      }
    },
    {
      "doubleSided": true,
      "name": "antlers",
      "pbrMetallicRoughness": {
        "baseColorTexture": {
          "index": 0
        },
        "metallicFactor": 0.0,
        "roughnessFactor": 0.9207483815999999
      }
    }
  ],
  "meshes": [
    {
      "name": "polySurface9_blinn1_0",
      "primitives": [
        {
          "attributes": {
            "NORMAL": 1,
            "POSITION": 0,
            "TEXCOORD_0": 2
          },
          "indices": 3,
          "material": 0,
          "mode": 4
        }
      ]
    },
    {
      "name": "polySurface9_Snout2_0",
      "primitives": [
        {
          "attributes": {
            "NORMAL": 5,
            "POSITION": 4,
            "TEXCOORD_0": 6
          },
          "indices": 7,
          "material": 1,
          "mode": 4
        }
      ]
    },
    {
      "name": "polySurface9_lambert1_0",
      "primitives": [
        {
          "attributes": {
            "NORMAL": 9,
            "POSITION": 8,
            "TEXCOORD_0": 10
          },
          "indices": 11,
          "material": 2,
          "mode": 4
        }
      ]
    },
    {
      "name": "polySurface9_eyecolor_0",
      "primitives": [
        {
          "attributes": {
            "NORMAL": 13,
            "POSITION": 12,
            "TEXCOORD_0": 14
          },
          "indices": 15,
          "material": 3,
          "mode": 4
        }
      ]
    },
    {
      "name": "polySurface9_earInside_0",
      "primitives": [
        {
          "attributes": {
            "NORMAL": 17,
            "POSITION": 16,
            "TEXCOORD_0": 18
          },
          "indices": 19,
          "material": 4,
          "mode": 4
        }
      ]
    },
    {
      "name": "polySurface9_antlers_0",
      "primitives": [
        {
          "attributes": {
            "NORMAL": 21,
            "POSITION": 20,
            "TEXCOORD_0": 22
          },
          "indices": 23,
          "material": 5,
          "mode": 4
        }
      ]
    }
  ],
  "nodes": [
    {
      "children": [
        1
      ],
      "matrix": [
        1.0,
        0.0,
        0.0,
        0.0,
        0.0,
        2.220446049250313e-16,
        -1.0,
        0.0,
        0.0,
        1.0,
        2.220446049250313e-16,
        0.0,
        0.0,
        0.0,
        0.0,
        1.0
      ],
      "name": "Sketchfab_model"
    },
    {
      "children": [
        2
      ],
      "matrix": [
        1.0,
        0.0,
        0.0,
        0.0,
        0.0,
        0.0,
        1.0,
        0.0,
        0.0,
        -1.0,
        0.0,
        0.0,
        0.0,
        0.0,
        0.0,
        1.0
      ],
      "name": "047d4b3f768b4924b820a282128e302e.fbx"
    },
    {
      "children": [
        3
      ],
      "name": "RootNode"
    },
    {
      "children": [
        4,
        5,
        6,
        7,
        8,
        9
      ],
      "name": "polySurface9"
    },
    {
      "mesh": 0,
      "name": "polySurface9_blinn1_0"
    },
    {
      "mesh": 1,
      "name": "polySurface9_Snout2_0"
    },
    {
      "mesh": 2,
      "name": "polySurface9_lambert1_0"
    },
    {
      "mesh": 3,
      "name": "polySurface9_eyecolor_0"
    },
    {
      "mesh": 4,
      "name": "polySurface9_earInside_0"
    },
    {
      "mesh": 5,
      "name": "polySurface9_antlers_0"
    }
  ],
  "samplers": [
    {
      "magFilter": 9729,
      "minFilter": 9987,
      "wrapS": 10497,
      "wrapT": 10497
    }
  ],
  "scene": 0,
  "scenes": [
    {
      "name": "Sketchfab_Scene",
      "nodes": [
        0
      ]
    }
  ],
  "textures": [
    {
      "sampler": 0,
      "source": 0
    }
  ]
}
